<?plantuml 1.2026.2beta2?><svg xmlns="http://www.w3.org/2000/svg" xmlns:xlink="http://www.w3.org/1999/xlink" contentStyleType="text/css" data-diagram-type="ACTIVITY" height="390px" preserveAspectRatio="none" style="width:298px;height:390px;background:#FFFFFF;" version="1.1" viewBox="0 0 298 390" width="298px" zoomAndPan="magnify"><title>BP1 - Client Onboarding Process</title><defs/><g><g class="title" data-source-line="1"><text fill="#000000" font-family="sans-serif" font-size="14" font-weight="bold" lengthAdjust="spacing" textLength="255.917" x="20" y="32.9951">BP1 - Client Onboarding Process</text></g><ellipse cx="149.4585" cy="57.2969" fill="#222222" rx="10" ry="10" style="stroke:#222222;stroke-width:1;"/><rect fill="#F1F1F1" height="33.9688" rx="12.5" ry="12.5" style="stroke:#181818;stroke-width:0.5;" width="194.1172" x="52.3999" y="87.2969"/><text fill="#000000" font-family="sans-serif" font-size="12" lengthAdjust="spacing" textLength="174.1172" x="62.3999" y="108.4355">Receive Client Requirements</text><rect fill="#F1F1F1" height="33.9688" rx="12.5" ry="12.5" style="stroke:#181818;stroke-width:0.5;" width="192.3477" x="53.2847" y="141.2656"/><text fill="#000000" font-family="sans-serif" font-size="12" lengthAdjust="spacing" textLength="172.3477" x="63.2847" y="162.4043">Analyze Initial Requirements</text><rect fill="#F1F1F1" height="33.9688" rx="12.5" ry="12.5" style="stroke:#181818;stroke-width:0.5;" width="264.4063" x="17.2554" y="195.2344"/><text fill="#000000" font-family="sans-serif" font-size="12" lengthAdjust="spacing" textLength="244.4063" x="27.2554" y="216.373">Prepare Quotation and Solution Proposal</text><rect fill="#F1F1F1" height="33.9688" rx="12.5" ry="12.5" style="stroke:#181818;stroke-width:0.5;" width="175.6367" x="61.6401" y="249.2031"/><text fill="#000000" font-family="sans-serif" font-size="12" lengthAdjust="spacing" textLength="155.6367" x="71.6401" y="270.3418">Negotiate Contract Terms</text><rect fill="#F1F1F1" height="33.9688" rx="12.5" ry="12.5" style="stroke:#181818;stroke-width:0.5;" width="101.6094" x="98.6538" y="303.1719"/><text fill="#000000" font-family="sans-serif" font-size="12" lengthAdjust="spacing" textLength="81.6094" x="108.6538" y="324.3105">Sign Contract</text><ellipse cx="149.4585" cy="368.1406" fill="none" rx="11" ry="11" style="stroke:#222222;stroke-width:1;"/><ellipse cx="149.4585" cy="368.1406" fill="#222222" rx="6" ry="6" style="stroke:#222222;stroke-width:1;"/><line style="stroke:#181818;stroke-width:1;" x1="149.4585" x2="149.4585" y1="67.2969" y2="87.2969"/><polygon fill="#181818" points="145.4585,77.2969,149.4585,87.2969,153.4585,77.2969,149.4585,81.2969" style="stroke:#181818;stroke-width:1;"/><line style="stroke:#181818;stroke-width:1;" x1="149.4585" x2="149.4585" y1="121.2656" y2="141.2656"/><polygon fill="#181818" points="145.4585,131.2656,149.4585,141.2656,153.4585,131.2656,149.4585,135.2656" style="stroke:#181818;stroke-width:1;"/><line style="stroke:#181818;stroke-width:1;" x1="149.4585" x2="149.4585" y1="175.2344" y2="195.2344"/><polygon fill="#181818" points="145.4585,185.2344,149.4585,195.2344,153.4585,185.2344,149.4585,189.2344" style="stroke:#181818;stroke-width:1;"/><line style="stroke:#181818;stroke-width:1;" x1="149.4585" x2="149.4585" y1="229.2031" y2="249.2031"/><polygon fill="#181818" points="145.4585,239.2031,149.4585,249.2031,153.4585,239.2031,149.4585,243.2031" style="stroke:#181818;stroke-width:1;"/><line style="stroke:#181818;stroke-width:1;" x1="149.4585" x2="149.4585" y1="283.1719" y2="303.1719"/><polygon fill="#181818" points="145.4585,293.1719,149.4585,303.1719,153.4585,293.1719,149.4585,297.1719" style="stroke:#181818;stroke-width:1;"/><line style="stroke:#181818;stroke-width:1;" x1="149.4585" x2="149.4585" y1="337.1406" y2="357.1406"/><polygon fill="#181818" points="145.4585,347.1406,149.4585,357.1406,153.4585,347.1406,149.4585,351.1406" style="stroke:#181818;stroke-width:1;"/><?plantuml-src NKux3i8m3Drp2b-0WRMTW8a5Gii5J6j5bbAxE6ubE3q12GQszzDxpzapmJvkOGE7p2GEPxafsiYI89eEL4e8nT4yD1qDn2jzantT5pQQAYvjQ7Q2-V4aE0exO_wtez6CHd1PrD5P1L16w3Kl7rAtPYsOQ_94IMk3ro4LDnmShcJJkwJd93-rhRzqVW40?></g></svg>