<?plantuml 1.2026.2beta2?><svg xmlns="http://www.w3.org/2000/svg" xmlns:xlink="http://www.w3.org/1999/xlink" contentStyleType="text/css" data-diagram-type="ACTIVITY" height="390px" preserveAspectRatio="none" style="width:336px;height:390px;background:#FFFFFF;" version="1.1" viewBox="0 0 336 390" width="336px" zoomAndPan="magnify"><title>BP2 - Software Development Process</title><defs/><g><g class="title" data-source-line="1"><text fill="#000000" font-family="sans-serif" font-size="14" font-weight="bold" lengthAdjust="spacing" textLength="293.4053" x="20" y="32.9951">BP2 - Software Development Process</text></g><ellipse cx="168.2026" cy="57.2969" fill="#222222" rx="10" ry="10" style="stroke:#222222;stroke-width:1;"/><rect fill="#F1F1F1" height="33.9688" rx="12.5" ry="12.5" style="stroke:#181818;stroke-width:0.5;" width="209.4922" x="63.4565" y="87.2969"/><text fill="#000000" font-family="sans-serif" font-size="12" lengthAdjust="spacing" textLength="189.4922" x="73.4565" y="108.4355">Analyze Detailed Requirements</text><rect fill="#F1F1F1" height="33.9688" rx="12.5" ry="12.5" style="stroke:#181818;stroke-width:0.5;" width="109.9941" x="113.2056" y="141.2656"/><text fill="#000000" font-family="sans-serif" font-size="12" lengthAdjust="spacing" textLength="89.9941" x="123.2056" y="162.4043">System Design</text><rect fill="#F1F1F1" height="33.9688" rx="12.5" ry="12.5" style="stroke:#181818;stroke-width:0.5;" width="170.3574" x="83.0239" y="195.2344"/><text fill="#000000" font-family="sans-serif" font-size="12" lengthAdjust="spacing" textLength="150.3574" x="93.0239" y="216.373">Implementation (Coding)</text><rect fill="#F1F1F1" height="33.9688" rx="12.5" ry="12.5" style="stroke:#181818;stroke-width:0.5;" width="64.2266" x="136.0894" y="249.2031"/><text fill="#000000" font-family="sans-serif" font-size="12" lengthAdjust="spacing" textLength="44.2266" x="146.0894" y="270.3418">Testing</text><rect fill="#F1F1F1" height="33.9688" rx="12.5" ry="12.5" style="stroke:#181818;stroke-width:0.5;" width="93.4004" x="121.5024" y="303.1719"/><text fill="#000000" font-family="sans-serif" font-size="12" lengthAdjust="spacing" textLength="73.4004" x="131.5024" y="324.3105">Deployment</text><ellipse cx="168.2026" cy="368.1406" fill="none" rx="11" ry="11" style="stroke:#222222;stroke-width:1;"/><ellipse cx="168.2026" cy="368.1406" fill="#222222" rx="6" ry="6" style="stroke:#222222;stroke-width:1;"/><line style="stroke:#181818;stroke-width:1;" x1="168.2026" x2="168.2026" y1="67.2969" y2="87.2969"/><polygon fill="#181818" points="164.2026,77.2969,168.2026,87.2969,172.2026,77.2969,168.2026,81.2969" style="stroke:#181818;stroke-width:1;"/><line style="stroke:#181818;stroke-width:1;" x1="168.2026" x2="168.2026" y1="121.2656" y2="141.2656"/><polygon fill="#181818" points="164.2026,131.2656,168.2026,141.2656,172.2026,131.2656,168.2026,135.2656" style="stroke:#181818;stroke-width:1;"/><line style="stroke:#181818;stroke-width:1;" x1="168.2026" x2="168.2026" y1="175.2344" y2="195.2344"/><polygon fill="#181818" points="164.2026,185.2344,168.2026,195.2344,172.2026,185.2344,168.2026,189.2344" style="stroke:#181818;stroke-width:1;"/><line style="stroke:#181818;stroke-width:1;" x1="168.2026" x2="168.2026" y1="229.2031" y2="249.2031"/><polygon fill="#181818" points="164.2026,239.2031,168.2026,249.2031,172.2026,239.2031,168.2026,243.2031" style="stroke:#181818;stroke-width:1;"/><line style="stroke:#181818;stroke-width:1;" x1="168.2026" x2="168.2026" y1="283.1719" y2="303.1719"/><polygon fill="#181818" points="164.2026,293.1719,168.2026,303.1719,172.2026,293.1719,168.2026,297.1719" style="stroke:#181818;stroke-width:1;"/><line style="stroke:#181818;stroke-width:1;" x1="168.2026" x2="168.2026" y1="337.1406" y2="357.1406"/><polygon fill="#181818" points="164.2026,347.1406,168.2026,357.1406,172.2026,347.1406,168.2026,351.1406" style="stroke:#181818;stroke-width:1;"/><?plantuml-src 7Oqn3i8m34NtdC8Z32oCxGHqOQie5uYegIovSOXTK3Wz3jlxUa_wHiO8v_481vZaQPzO40Py8qjUCHcCHHwe6e9QB1QwKufSlwsnI8mptF2rKS4MQn-wgQhXwbffIRwlQ-Q_Z4QIO7UHcTAoTtD7DKUd0JDBRL7lDv9_?></g></svg>