<?plantuml 1.2026.2beta2?><svg xmlns="http://www.w3.org/2000/svg" xmlns:xlink="http://www.w3.org/1999/xlink" contentStyleType="text/css" data-diagram-type="ACTIVITY" height="390px" preserveAspectRatio="none" style="width:342px;height:390px;background:#FFFFFF;" version="1.1" viewBox="0 0 342 390" width="342px" zoomAndPan="magnify"><title>BP4 - Maintenance &amp; Support Process</title><defs/><g><g class="title" data-source-line="1"><text fill="#000000" font-family="sans-serif" font-size="14" font-weight="bold" lengthAdjust="spacing" textLength="299.1201" x="20" y="32.9951">BP4 - Maintenance &amp; Support Process</text></g><ellipse cx="171.0601" cy="57.2969" fill="#222222" rx="10" ry="10" style="stroke:#222222;stroke-width:1;"/><rect fill="#F1F1F1" height="33.9688" rx="12.5" ry="12.5" style="stroke:#181818;stroke-width:0.5;" width="171.8691" x="85.1255" y="87.2969"/><text fill="#000000" font-family="sans-serif" font-size="12" lengthAdjust="spacing" textLength="151.8691" x="95.1255" y="108.4355">Receive Support Request</text><rect fill="#F1F1F1" height="33.9688" rx="12.5" ry="12.5" style="stroke:#181818;stroke-width:0.5;" width="102.1309" x="119.9946" y="141.2656"/><text fill="#000000" font-family="sans-serif" font-size="12" lengthAdjust="spacing" textLength="82.1309" x="129.9946" y="162.4043">Analyze Issue</text><rect fill="#F1F1F1" height="33.9688" rx="12.5" ry="12.5" style="stroke:#181818;stroke-width:0.5;" width="184.3789" x="78.8706" y="195.2344"/><text fill="#000000" font-family="sans-serif" font-size="12" lengthAdjust="spacing" textLength="164.3789" x="88.8706" y="216.373">Fix Bug or Upgrade System</text><rect fill="#F1F1F1" height="33.9688" rx="12.5" ry="12.5" style="stroke:#181818;stroke-width:0.5;" width="64.2266" x="138.9468" y="249.2031"/><text fill="#000000" font-family="sans-serif" font-size="12" lengthAdjust="spacing" textLength="44.2266" x="148.9468" y="270.3418">Testing</text><rect fill="#F1F1F1" height="33.9688" rx="12.5" ry="12.5" style="stroke:#181818;stroke-width:0.5;" width="180.1543" x="80.9829" y="303.1719"/><text fill="#000000" font-family="sans-serif" font-size="12" lengthAdjust="spacing" textLength="160.1543" x="90.9829" y="324.3105">Update Production System</text><ellipse cx="171.0601" cy="368.1406" fill="none" rx="11" ry="11" style="stroke:#222222;stroke-width:1;"/><ellipse cx="171.0601" cy="368.1406" fill="#222222" rx="6" ry="6" style="stroke:#222222;stroke-width:1;"/><line style="stroke:#181818;stroke-width:1;" x1="171.0601" x2="171.0601" y1="67.2969" y2="87.2969"/><polygon fill="#181818" points="167.0601,77.2969,171.0601,87.2969,175.0601,77.2969,171.0601,81.2969" style="stroke:#181818;stroke-width:1;"/><line style="stroke:#181818;stroke-width:1;" x1="171.0601" x2="171.0601" y1="121.2656" y2="141.2656"/><polygon fill="#181818" points="167.0601,131.2656,171.0601,141.2656,175.0601,131.2656,171.0601,135.2656" style="stroke:#181818;stroke-width:1;"/><line style="stroke:#181818;stroke-width:1;" x1="171.0601" x2="171.0601" y1="175.2344" y2="195.2344"/><polygon fill="#181818" points="167.0601,185.2344,171.0601,195.2344,175.0601,185.2344,171.0601,189.2344" style="stroke:#181818;stroke-width:1;"/><line style="stroke:#181818;stroke-width:1;" x1="171.0601" x2="171.0601" y1="229.2031" y2="249.2031"/><polygon fill="#181818" points="167.0601,239.2031,171.0601,249.2031,175.0601,239.2031,171.0601,243.2031" style="stroke:#181818;stroke-width:1;"/><line style="stroke:#181818;stroke-width:1;" x1="171.0601" x2="171.0601" y1="283.1719" y2="303.1719"/><polygon fill="#181818" points="167.0601,293.1719,171.0601,303.1719,175.0601,293.1719,171.0601,297.1719" style="stroke:#181818;stroke-width:1;"/><line style="stroke:#181818;stroke-width:1;" x1="171.0601" x2="171.0601" y1="337.1406" y2="357.1406"/><polygon fill="#181818" points="167.0601,347.1406,171.0601,357.1406,175.0601,347.1406,171.0601,351.1406" style="stroke:#181818;stroke-width:1;"/><?plantuml-src FOqn3i8m40Hxl-8gEZggK942YG8f2ia3JixAEYdOndT6XDTZcdIxcXsjYQsWVZZHaUuiqH0vUj217ZNdL8o6aZnKdLFZOguRuI5lx7p4gqBjxBfBv7NxWcwg5QrVvKDz3PGApJaKNfgqgU7PsDGKYQ6bEIzi-DyirPkak8_KKlu1?></g></svg>