<?plantuml 1.2026.2beta2?><svg xmlns="http://www.w3.org/2000/svg" xmlns:xlink="http://www.w3.org/1999/xlink" contentStyleType="text/css" data-diagram-type="ACTIVITY" height="444px" preserveAspectRatio="none" style="width:392px;height:444px;background:#FFFFFF;" version="1.1" viewBox="0 0 392 444" width="392px" zoomAndPan="magnify"><title>BP5 - Change Request Management Process</title><defs/><g><g class="title" data-source-line="1"><text fill="#000000" font-family="sans-serif" font-size="14" font-weight="bold" lengthAdjust="spacing" textLength="349.1045" x="20" y="32.9951">BP5 - Change Request Management Process</text></g><ellipse cx="196.0522" cy="57.2969" fill="#222222" rx="10" ry="10" style="stroke:#222222;stroke-width:1;"/><rect fill="#F1F1F1" height="33.9688" rx="12.5" ry="12.5" style="stroke:#181818;stroke-width:0.5;" width="170.375" x="110.8647" y="87.2969"/><text fill="#000000" font-family="sans-serif" font-size="12" lengthAdjust="spacing" textLength="150.375" x="120.8647" y="108.4355">Receive Change Request</text><rect fill="#F1F1F1" height="33.9688" rx="12.5" ry="12.5" style="stroke:#181818;stroke-width:0.5;" width="205.0859" x="93.5093" y="141.2656"/><text fill="#000000" font-family="sans-serif" font-size="12" lengthAdjust="spacing" textLength="185.0859" x="103.5093" y="162.4043">Analyze Change Requirements</text><rect fill="#F1F1F1" height="33.9688" rx="12.5" ry="12.5" style="stroke:#181818;stroke-width:0.5;" width="137.2988" x="127.4028" y="195.2344"/><text fill="#000000" font-family="sans-serif" font-size="12" lengthAdjust="spacing" textLength="117.2988" x="137.4028" y="216.373">Impact Assessment</text><rect fill="#F1F1F1" height="33.9688" rx="12.5" ry="12.5" style="stroke:#181818;stroke-width:0.5;" width="138.1484" x="126.978" y="249.2031"/><text fill="#000000" font-family="sans-serif" font-size="12" lengthAdjust="spacing" textLength="118.1484" x="136.978" y="270.3418">Update Project Plan</text><rect fill="#F1F1F1" height="33.9688" rx="12.5" ry="12.5" style="stroke:#181818;stroke-width:0.5;" width="134.7031" x="128.7007" y="303.1719"/><text fill="#000000" font-family="sans-serif" font-size="12" lengthAdjust="spacing" textLength="114.7031" x="138.7007" y="324.3105">Implement Change</text><rect fill="#F1F1F1" height="33.9688" rx="12.5" ry="12.5" style="stroke:#181818;stroke-width:0.5;" width="64.2266" x="163.939" y="357.1406"/><text fill="#000000" font-family="sans-serif" font-size="12" lengthAdjust="spacing" textLength="44.2266" x="173.939" y="378.2793">Testing</text><ellipse cx="196.0522" cy="422.1094" fill="none" rx="11" ry="11" style="stroke:#222222;stroke-width:1;"/><ellipse cx="196.0522" cy="422.1094" fill="#222222" rx="6" ry="6" style="stroke:#222222;stroke-width:1;"/><line style="stroke:#181818;stroke-width:1;" x1="196.0522" x2="196.0522" y1="67.2969" y2="87.2969"/><polygon fill="#181818" points="192.0522,77.2969,196.0522,87.2969,200.0522,77.2969,196.0522,81.2969" style="stroke:#181818;stroke-width:1;"/><line style="stroke:#181818;stroke-width:1;" x1="196.0522" x2="196.0522" y1="121.2656" y2="141.2656"/><polygon fill="#181818" points="192.0522,131.2656,196.0522,141.2656,200.0522,131.2656,196.0522,135.2656" style="stroke:#181818;stroke-width:1;"/><line style="stroke:#181818;stroke-width:1;" x1="196.0522" x2="196.0522" y1="175.2344" y2="195.2344"/><polygon fill="#181818" points="192.0522,185.2344,196.0522,195.2344,200.0522,185.2344,196.0522,189.2344" style="stroke:#181818;stroke-width:1;"/><line style="stroke:#181818;stroke-width:1;" x1="196.0522" x2="196.0522" y1="229.2031" y2="249.2031"/><polygon fill="#181818" points="192.0522,239.2031,196.0522,249.2031,200.0522,239.2031,196.0522,243.2031" style="stroke:#181818;stroke-width:1;"/><line style="stroke:#181818;stroke-width:1;" x1="196.0522" x2="196.0522" y1="283.1719" y2="303.1719"/><polygon fill="#181818" points="192.0522,293.1719,196.0522,303.1719,200.0522,293.1719,196.0522,297.1719" style="stroke:#181818;stroke-width:1;"/><line style="stroke:#181818;stroke-width:1;" x1="196.0522" x2="196.0522" y1="337.1406" y2="357.1406"/><polygon fill="#181818" points="192.0522,347.1406,196.0522,357.1406,200.0522,347.1406,196.0522,351.1406" style="stroke:#181818;stroke-width:1;"/><line style="stroke:#181818;stroke-width:1;" x1="196.0522" x2="196.0522" y1="391.1094" y2="411.1094"/><polygon fill="#181818" points="192.0522,401.1094,196.0522,411.1094,200.0522,401.1094,196.0522,405.1094" style="stroke:#181818;stroke-width:1;"/><?plantuml-src NOun3i8m34NtdC8NO6HffyB4W1HLS00hV8MWD0srGOBJuv89rlVztxScpQ2TtzA6zbSk4JJY_e0e7Rbmn8IYv9SvGCGvKLxKTIC2qXD_ZTvrG-7yUly4QVawnDB3L3ae3I8cMw6nSxsmObsumJAVkRJBtAQRoT395bA9lVqmrmy0?></g></svg>